<svg width="380" height="379" viewBox="0 0 380 379" fill="none" xmlns="http://www.w3.org/2000/svg">
<rect x="3.5" y="3.5" width="372" height="372" rx="186" fill="#FBBC05" stroke="#1E1E1E" stroke-width="7"/>
<path d="M295.771 93.6017C280.402 90.3032 263.438 97.9893 250.572 114.076C239.399 128.04 234.865 142.9 237.557 156.607C239.432 166.086 246.204 174.196 253.818 176.108C256.667 176.805 262.942 176.83 266.964 176.165C277.888 174.307 288.611 168.025 296.974 158.602C301.56 153.436 304.073 149.555 307.406 142.588C311.926 133.153 313.331 128.017 313.351 120.755C313.37 113.578 311.609 107.366 308.165 102.426C304.955 97.8628 300.351 94.5926 295.771 93.6017Z" fill="#1E1E1E"/>
<path d="M195.311 42.3621C186.892 39.785 175.738 43.2687 167.57 51.0389C160.766 57.4942 154.006 70.1976 151.449 81.2449C147.231 99.6803 150.597 116.313 160.855 127.652C163.061 130.12 166.824 132.316 170.245 133.177C180.95 135.816 192.585 130.733 201.924 119.273C204.904 115.656 209.688 106.787 211.476 101.568C218.552 81.0846 216.345 61.7008 205.554 49.314C203.803 47.2956 199.409 43.6578 198.202 43.2506C198.066 43.1806 196.756 42.8063 195.311 42.3621Z" fill="#1E1E1E"/>
<path d="M321.904 190.73C305.663 184.931 285.675 191.891 271.344 208.319C267.32 212.969 263.399 219 261.714 223.185C258.554 231.064 257.88 238.854 259.825 245.552C262.146 253.6 266.483 258.147 274.15 260.556C289.823 265.462 309.821 257.736 323.263 241.621C326.39 237.879 330.348 231.61 331.995 227.748C336.34 217.653 336.039 205.935 331.209 198.436C329.003 194.987 325.312 191.929 321.904 190.73Z" fill="#1E1E1E"/>
<path d="M97.1951 76.9862C90.9527 75.2642 83.5028 76.5488 78.3499 80.1697C71.6052 84.8915 65.1515 95.0143 62.2239 105.502C60.1123 113.081 59.5647 123.258 60.8155 130.691C63.4471 146.05 73.2117 159.662 83.5506 162.299C86.9856 163.173 90.5362 162.91 95.0858 161.455C103.196 158.888 108.348 153.943 113.7 143.722C119.313 132.91 121.208 120.78 119.223 108.145C118.482 103.451 115.861 95.6115 113.735 91.7837C109.052 83.2233 104.165 78.8699 97.1951 76.9862Z" fill="#1E1E1E"/>
<path d="M197.406 148.275C181.981 142.783 164.856 141.999 147.253 145.936C139.62 147.641 133.242 150.161 123.28 155.411C100.028 167.603 83.3144 180.539 67.5604 198.548C62.0697 204.762 60.9641 206.258 58.7822 210.493C56.7821 214.375 56.1176 216.098 55.592 219.176C53.4711 231.202 56.5143 241.981 64.1684 249.553C66.5584 251.957 67.9232 252.883 72.4669 255.224C81.7748 260.02 87.8384 261.47 109.536 263.996C129.26 266.343 133.245 267.169 143.584 271.156C157.369 276.472 165.279 283.004 181.248 302.284C194.592 318.314 197.928 321.373 206.031 324.934C214.486 328.676 221.714 329.274 229.378 326.859C237.821 324.231 242.785 319.364 247.39 309.344C253.978 294.931 255.149 275.214 251.38 241.9C248.377 215.008 243.039 195.79 234.133 179.813C229.31 171.188 224.345 165.113 217.468 159.393C214.062 156.577 202.091 149.907 197.406 148.275Z" fill="#1E1E1E"/>
</svg>
